<svg width="20" height="20" viewBox="0 0 20 20" fill="none" xmlns="http://www.w3.org/2000/svg">
<path d="M10 19.4165C4.63835 19.4165 0.333927 15.1121 0.333927 9.75045C0.333927 4.42655 4.63835 0.0843725 10 0.0843725C15.3239 0.0843725 19.6661 4.42655 19.6661 9.75045C19.6661 15.1121 15.3239 19.4165 10 19.4165ZM6.52626 12.3935C6.29971 12.1292 5.92213 12.1292 5.65782 12.318C5.39351 12.5445 5.39351 12.9221 5.5823 13.1864C6.45074 14.1681 7.88555 15.1876 10 15.1876C12.0767 15.1876 13.5115 14.1681 14.3799 13.1864C14.5687 12.9221 14.5687 12.5445 14.3044 12.318C14.0401 12.1292 13.6625 12.1292 13.436 12.3935C12.7941 13.1864 11.6236 13.9794 10 13.9794C8.33864 13.9794 7.2059 13.1864 6.52626 12.3935ZM8.18761 7.93806C8.18761 7.29617 7.659 6.7298 6.97935 6.7298C6.29971 6.7298 5.77109 7.29617 5.77109 7.93806C5.77109 8.6177 6.29971 9.14632 6.97935 9.14632C7.659 9.14632 8.18761 8.6177 8.18761 7.93806ZM11.6614 8.91977C12.341 8.05133 13.6625 8.05133 14.3422 8.91977C14.531 9.18407 14.9086 9.25959 15.1729 9.03304C15.4372 8.84425 15.5127 8.46667 15.2861 8.20236C14.1534 6.65428 11.8501 6.65428 10.7174 8.20236C10.4909 8.46667 10.5664 8.84425 10.8307 9.03304C11.095 9.25959 11.4726 9.18407 11.6614 8.91977Z" fill="#1E293B"/>
</svg>
